<?xml version="1.0" encoding="UTF-8"?>
<!DOCTYPE svg PUBLIC "-//W3C//DTD SVG 1.1//EN" "http://www.w3.org/Graphics/SVG/1.1/DTD/svg11.dtd">
<svg version="1.1" xmlns="http://www.w3.org/2000/svg" xmlns:xlink="http://www.w3.org/1999/xlink" x="0" y="0" width="30" height="30" viewBox="0, 0, 30, 30">
  <g id="Layer_1">
    <path d="M25.873,15.406 C25.834,15.398 14.998,13.069 14.998,13.069 C14.998,13.069 4.148,15.401 4.127,15.406 C4.068,15.417 4.088,15.467 4.088,15.467 L4.238,16.024 L4.269,16.024 L4.263,16.024 C4.263,16.024 4.431,16.003 4.531,16.159 L4.693,17.052 C4.693,17.052 4.697,17.115 4.759,17.115 C4.825,17.115 5.154,17.115 5.154,17.115 L24.842,17.115 C24.842,17.115 25.184,17.115 25.238,17.115 C25.292,17.115 25.299,17.069 25.299,17.069 L25.461,16.174 C25.555,15.998 25.736,16.024 25.736,16.024 L25.732,16.022 L25.759,16.024 L25.909,15.467 C25.913,15.467 25.934,15.417 25.873,15.406 z" fill="#FFFFFF"/>
    <path d="M24.736,17.401 C24.748,17.401 24.757,17.392 24.757,17.377 L24.757,17.101 C24.757,17.086 24.745,17.099 24.736,17.099 L23.084,17.099 C23.072,17.099 23.059,17.086 23.059,17.101 L23.059,17.377 C23.059,17.393 23.073,17.401 23.084,17.401 L23.154,17.402 C23.185,17.402 23.189,17.435 23.189,17.466 C23.189,17.508 23.207,17.723 23.357,17.853 C23.377,17.872 23.373,17.923 23.326,17.923 C23.322,17.923 23.279,17.923 23.275,17.923 C23.238,17.923 23.236,17.948 23.248,17.968 C23.262,17.993 23.266,18.067 23.266,18.101 C23.266,18.136 23.266,18.197 23.266,18.222 C23.266,18.243 23.268,18.262 23.289,18.262 C23.291,18.262 23.31,18.262 23.312,18.262 C23.312,18.262 23.33,18.259 23.33,18.28 C23.33,18.296 23.33,18.304 23.33,18.304 L23.33,24.379 C23.31,24.399 23.248,24.463 23.242,24.467 C23.238,24.473 23.23,24.481 23.23,24.489 L23.23,24.592 C23.23,24.6 23.228,24.611 23.222,24.614 C23.218,24.619 23.208,24.621 23.201,24.621 L23.125,24.621 C23.109,24.621 23.1,24.633 23.1,24.646 C23.1,24.646 23.1,24.815 23.1,24.822 L24.719,24.822 C24.719,24.816 24.719,24.646 24.719,24.646 C24.719,24.632 24.707,24.621 24.696,24.621 L24.62,24.621 C24.61,24.621 24.602,24.619 24.597,24.614 C24.593,24.61 24.589,24.599 24.589,24.592 L24.589,24.492 C24.589,24.484 24.587,24.478 24.579,24.471 C24.569,24.462 24.517,24.409 24.491,24.381 L24.491,18.306 C24.491,18.306 24.491,18.297 24.491,18.282 C24.491,18.262 24.507,18.264 24.507,18.264 C24.509,18.264 24.528,18.264 24.53,18.264 C24.551,18.264 24.555,18.245 24.555,18.224 C24.555,18.2 24.555,18.138 24.555,18.103 C24.555,18.069 24.561,17.996 24.573,17.971 C24.587,17.95 24.583,17.925 24.544,17.925 C24.542,17.925 24.497,17.925 24.495,17.925 C24.448,17.925 24.442,17.872 24.462,17.855 C24.614,17.731 24.63,17.515 24.63,17.474 C24.63,17.437 24.628,17.404 24.669,17.404 L24.736,17.401 z" fill="#FFFFFF"/>
    <path d="M21.173,17.401 C21.185,17.401 21.196,17.392 21.196,17.377 L21.196,17.101 C21.196,17.086 21.182,17.099 21.173,17.099 L19.519,17.099 C19.505,17.099 19.496,17.086 19.496,17.101 L19.496,17.377 C19.496,17.393 19.506,17.401 19.519,17.401 L19.591,17.402 C19.622,17.402 19.624,17.435 19.624,17.466 C19.624,17.508 19.644,17.723 19.792,17.853 C19.812,17.872 19.806,17.923 19.763,17.923 C19.759,17.923 19.714,17.923 19.712,17.923 C19.673,17.923 19.669,17.948 19.681,17.968 C19.697,17.993 19.699,18.067 19.699,18.101 C19.699,18.136 19.699,18.197 19.699,18.222 C19.699,18.243 19.703,18.262 19.724,18.262 L19.747,18.262 C19.747,18.262 19.765,18.259 19.765,18.28 C19.765,18.296 19.767,18.304 19.767,18.304 L19.767,24.379 C19.747,24.399 19.681,24.463 19.677,24.467 C19.671,24.473 19.667,24.481 19.667,24.489 L19.667,24.592 C19.667,24.6 19.667,24.611 19.657,24.614 C19.653,24.619 19.645,24.621 19.637,24.621 L19.559,24.621 C19.547,24.621 19.538,24.633 19.538,24.646 C19.538,24.646 19.538,24.815 19.538,24.822 L21.153,24.822 C21.153,24.816 21.153,24.646 21.153,24.646 C21.153,24.632 21.141,24.621 21.13,24.621 L21.054,24.621 C21.044,24.621 21.034,24.619 21.031,24.614 C21.025,24.61 21.023,24.599 21.023,24.592 L21.023,24.492 C21.023,24.484 21.021,24.478 21.013,24.471 C21.005,24.462 20.952,24.409 20.925,24.381 L20.925,18.306 C20.925,18.306 20.925,18.297 20.925,18.282 C20.925,18.262 20.943,18.264 20.943,18.264 C20.945,18.264 20.964,18.264 20.964,18.264 C20.985,18.264 20.987,18.245 20.987,18.224 C20.987,18.2 20.987,18.138 20.987,18.103 C20.987,18.069 20.995,17.996 21.008,17.971 C21.018,17.95 21.014,17.925 20.977,17.925 C20.975,17.925 20.932,17.925 20.928,17.925 C20.881,17.925 20.875,17.872 20.897,17.855 C21.049,17.731 21.065,17.515 21.065,17.474 C21.065,17.437 21.063,17.404 21.102,17.404 L21.173,17.401 z" fill="#FFFFFF"/>
    <path d="M17.609,17.401 C17.623,17.401 17.629,17.392 17.629,17.377 L17.629,17.101 C17.629,17.086 17.621,17.099 17.609,17.099 L15.955,17.099 C15.941,17.099 15.932,17.086 15.932,17.101 L15.932,17.377 C15.932,17.393 15.942,17.401 15.955,17.401 L16.027,17.402 C16.056,17.402 16.058,17.435 16.058,17.466 C16.058,17.508 16.079,17.723 16.23,17.853 C16.25,17.872 16.242,17.923 16.199,17.923 C16.195,17.923 16.15,17.923 16.148,17.923 C16.109,17.923 16.107,17.948 16.119,17.968 C16.133,17.993 16.137,18.067 16.137,18.101 C16.137,18.136 16.137,18.197 16.137,18.222 C16.137,18.243 16.139,18.262 16.158,18.262 C16.16,18.262 16.181,18.262 16.181,18.262 C16.181,18.262 16.202,18.259 16.202,18.28 C16.202,18.296 16.202,18.304 16.202,18.304 L16.202,24.379 C16.182,24.399 16.118,24.463 16.112,24.467 C16.106,24.473 16.1,24.481 16.1,24.489 L16.1,24.592 C16.1,24.6 16.098,24.611 16.094,24.614 C16.088,24.619 16.078,24.621 16.073,24.621 L15.997,24.621 C15.985,24.621 15.974,24.633 15.974,24.646 C15.974,24.646 15.974,24.815 15.974,24.822 L17.589,24.822 C17.589,24.816 17.589,24.646 17.589,24.646 C17.589,24.632 17.577,24.621 17.566,24.621 L17.49,24.621 C17.48,24.621 17.47,24.619 17.467,24.614 C17.463,24.61 17.459,24.599 17.459,24.592 L17.459,24.492 C17.459,24.484 17.457,24.478 17.451,24.471 C17.441,24.462 17.39,24.409 17.361,24.381 L17.361,18.306 C17.361,18.306 17.361,18.297 17.361,18.282 C17.361,18.262 17.379,18.264 17.379,18.264 C17.381,18.264 17.4,18.264 17.4,18.264 C17.423,18.264 17.425,18.245 17.425,18.224 C17.425,18.2 17.425,18.138 17.425,18.103 C17.425,18.069 17.431,17.996 17.446,17.971 C17.456,17.95 17.456,17.925 17.417,17.925 C17.415,17.925 17.37,17.925 17.366,17.925 C17.319,17.925 17.311,17.872 17.337,17.855 C17.487,17.731 17.501,17.515 17.501,17.474 C17.501,17.437 17.501,17.404 17.54,17.404 L17.609,17.401 z" fill="#FFFFFF"/>
    <path d="M14.044,17.401 C14.058,17.401 14.067,17.392 14.067,17.377 L14.067,17.101 C14.067,17.086 14.055,17.099 14.044,17.099 L12.39,17.099 C12.376,17.099 12.369,17.086 12.369,17.101 L12.369,17.377 C12.369,17.393 12.377,17.401 12.39,17.401 L12.46,17.402 C12.493,17.402 12.495,17.435 12.495,17.466 C12.495,17.508 12.515,17.723 12.665,17.853 C12.685,17.872 12.677,17.923 12.634,17.923 C12.63,17.923 12.585,17.923 12.583,17.923 C12.544,17.923 12.542,17.948 12.554,17.968 C12.568,17.993 12.572,18.067 12.572,18.101 C12.572,18.136 12.572,18.197 12.572,18.222 C12.572,18.243 12.574,18.262 12.597,18.262 C12.597,18.262 12.618,18.262 12.62,18.262 C12.62,18.262 12.638,18.259 12.638,18.28 C12.638,18.296 12.638,18.304 12.638,18.304 L12.638,24.379 C12.62,24.399 12.554,24.463 12.548,24.467 C12.544,24.473 12.54,24.481 12.54,24.489 L12.54,24.592 C12.54,24.6 12.538,24.611 12.53,24.614 C12.524,24.619 12.514,24.621 12.509,24.621 L12.433,24.621 C12.419,24.621 12.41,24.633 12.41,24.646 C12.41,24.646 12.41,24.815 12.41,24.822 L14.025,24.822 C14.025,24.816 14.025,24.646 14.025,24.646 C14.025,24.632 14.015,24.621 14.002,24.621 L13.926,24.621 C13.916,24.621 13.908,24.619 13.903,24.614 C13.899,24.61 13.897,24.599 13.897,24.592 L13.897,24.492 C13.897,24.484 13.895,24.478 13.887,24.471 C13.877,24.462 13.826,24.409 13.799,24.381 L13.799,18.306 C13.799,18.306 13.797,18.297 13.797,18.282 C13.797,18.262 13.815,18.264 13.815,18.264 C13.817,18.264 13.836,18.264 13.838,18.264 C13.858,18.264 13.861,18.245 13.861,18.224 C13.861,18.2 13.861,18.138 13.861,18.103 C13.861,18.069 13.867,17.996 13.881,17.971 C13.893,17.95 13.889,17.925 13.852,17.925 C13.848,17.925 13.805,17.925 13.803,17.925 C13.754,17.925 13.748,17.872 13.77,17.855 C13.922,17.731 13.938,17.515 13.938,17.474 C13.938,17.437 13.936,17.404 13.975,17.404 L14.044,17.401 z" fill="#FFFFFF"/>
    <path d="M10.48,17.401 C10.494,17.401 10.501,17.392 10.501,17.377 L10.501,17.101 C10.501,17.086 10.491,17.099 10.48,17.099 L8.828,17.099 C8.814,17.099 8.805,17.086 8.805,17.101 L8.805,17.377 C8.805,17.393 8.815,17.401 8.828,17.401 L8.896,17.402 C8.929,17.402 8.931,17.435 8.931,17.466 C8.931,17.508 8.952,17.723 9.103,17.853 C9.123,17.872 9.115,17.923 9.07,17.923 C9.068,17.923 9.021,17.923 9.019,17.923 C8.98,17.923 8.978,17.948 8.99,17.968 C9.004,17.993 9.008,18.067 9.008,18.101 C9.008,18.136 9.008,18.197 9.008,18.222 C9.008,18.243 9.01,18.262 9.033,18.262 C9.035,18.262 9.053,18.262 9.054,18.262 C9.054,18.262 9.074,18.259 9.074,18.28 C9.074,18.296 9.074,18.304 9.074,18.304 L9.074,24.379 C9.054,24.399 8.99,24.463 8.986,24.467 C8.978,24.473 8.974,24.481 8.974,24.489 L8.974,24.592 C8.974,24.6 8.972,24.611 8.966,24.614 C8.962,24.619 8.952,24.621 8.945,24.621 L8.871,24.621 C8.855,24.621 8.846,24.633 8.846,24.646 C8.846,24.646 8.846,24.815 8.846,24.822 L10.461,24.822 C10.461,24.816 10.461,24.646 10.461,24.646 C10.461,24.632 10.451,24.621 10.44,24.621 L10.362,24.621 C10.354,24.621 10.346,24.619 10.341,24.614 C10.335,24.61 10.333,24.599 10.333,24.592 L10.333,24.492 C10.333,24.484 10.331,24.478 10.323,24.471 C10.315,24.462 10.261,24.409 10.233,24.381 L10.233,18.306 C10.233,18.306 10.233,18.297 10.233,18.282 C10.233,18.262 10.251,18.264 10.251,18.264 C10.253,18.264 10.272,18.264 10.272,18.264 C10.295,18.264 10.297,18.245 10.297,18.224 C10.297,18.2 10.297,18.138 10.297,18.103 C10.297,18.069 10.303,17.996 10.317,17.971 C10.331,17.95 10.327,17.925 10.288,17.925 C10.286,17.925 10.241,17.925 10.237,17.925 C10.19,17.925 10.184,17.872 10.206,17.855 C10.358,17.731 10.374,17.515 10.374,17.474 C10.374,17.437 10.372,17.404 10.411,17.404 L10.48,17.401 z" fill="#FFFFFF"/>
    <path d="M6.915,17.401 C6.929,17.401 6.94,17.392 6.94,17.377 L6.94,17.101 C6.94,17.086 6.926,17.099 6.915,17.099 L5.263,17.099 C5.249,17.099 5.24,17.086 5.24,17.101 L5.24,17.377 C5.24,17.393 5.25,17.401 5.263,17.401 L5.333,17.402 C5.366,17.402 5.368,17.435 5.368,17.466 C5.368,17.508 5.388,17.723 5.538,17.853 C5.558,17.872 5.55,17.923 5.507,17.923 C5.503,17.923 5.458,17.923 5.454,17.923 C5.417,17.923 5.415,17.948 5.427,17.968 C5.441,17.993 5.443,18.067 5.443,18.101 C5.443,18.136 5.443,18.197 5.443,18.222 C5.443,18.243 5.445,18.262 5.468,18.262 L5.491,18.262 C5.491,18.262 5.509,18.259 5.509,18.28 C5.509,18.296 5.509,18.304 5.509,18.304 L5.509,24.379 C5.491,24.399 5.427,24.463 5.421,24.467 C5.415,24.473 5.411,24.481 5.411,24.489 L5.411,24.592 C5.411,24.6 5.409,24.611 5.405,24.614 C5.399,24.619 5.387,24.621 5.382,24.621 L5.306,24.621 C5.292,24.621 5.281,24.633 5.281,24.646 C5.281,24.646 5.281,24.815 5.281,24.822 L6.898,24.822 C6.898,24.816 6.898,24.646 6.898,24.646 C6.898,24.632 6.888,24.621 6.875,24.621 L6.797,24.621 C6.789,24.621 6.779,24.619 6.777,24.614 C6.769,24.61 6.767,24.599 6.767,24.592 L6.767,24.492 C6.767,24.484 6.765,24.478 6.759,24.471 C6.749,24.462 6.697,24.409 6.669,24.381 L6.669,18.306 C6.669,18.306 6.669,18.297 6.669,18.282 C6.669,18.262 6.685,18.264 6.685,18.264 C6.687,18.264 6.706,18.264 6.706,18.264 C6.729,18.264 6.733,18.245 6.733,18.224 C6.733,18.2 6.733,18.138 6.733,18.103 C6.733,18.069 6.737,17.996 6.753,17.971 C6.763,17.95 6.761,17.925 6.724,17.925 C6.72,17.925 6.677,17.925 6.673,17.925 C6.624,17.925 6.62,17.872 6.642,17.855 C6.792,17.731 6.808,17.515 6.808,17.474 C6.808,17.437 6.806,17.404 6.847,17.404 L6.915,17.401 z" fill="#FFFFFF"/>
    <path d="M20.058,10.966 C20.058,10.966 19.923,10.966 19.888,10.966 C19.843,10.966 19.845,10.93 19.845,10.93 C19.845,10.93 19.845,10.784 19.845,10.746 C19.845,10.699 19.798,10.699 19.798,10.699 C19.798,10.699 19.673,10.699 19.632,10.699 C19.585,10.699 19.587,10.657 19.587,10.657 L19.587,10.488 C19.587,10.488 19.587,10.451 19.544,10.451 C19.528,10.451 19.472,10.451 19.444,10.451 C19.409,10.451 19.372,10.422 19.37,10.373 C19.364,10.143 19.444,8.513 18.583,7.331 C17.905,6.317 16.972,5.804 16.456,5.563 C16.446,5.342 16.134,5.259 15.997,5.211 C15.925,5.188 15.862,5.158 15.862,5.095 C15.862,5.091 15.86,5.023 15.86,5.02 C15.86,4.952 15.921,4.923 16.016,4.926 C16.043,4.928 16.067,4.903 16.067,4.883 L16.067,4.686 C16.067,4.658 16.042,4.625 16.001,4.625 C15.933,4.625 15.855,4.625 15.815,4.625 C15.77,4.625 15.749,4.584 15.749,4.561 C15.749,4.521 15.749,4.539 15.749,4.461 C15.749,4.403 15.704,4.37 15.669,4.354 L15.669,3.137 C15.669,3.096 15.7,3.101 15.728,3.101 C15.732,3.101 15.738,3.101 15.742,3.1 L15.746,3.1 C15.762,3.1 15.775,3.085 15.775,3.07 L15.775,2.954 C15.775,2.937 15.761,2.925 15.746,2.925 L15.691,2.925 C15.671,2.916 15.658,2.892 15.658,2.836 C15.658,2.78 15.676,2.753 15.699,2.749 L15.746,2.749 C15.762,2.749 15.775,2.736 15.775,2.721 L15.775,2.602 C15.775,2.586 15.761,2.574 15.746,2.574 L15.685,2.574 C15.658,2.57 15.636,2.558 15.611,2.537 C15.404,2.373 15.195,2.138 15.195,2.101 C15.195,2.081 15.195,2.08 15.195,2.057 C15.195,2.032 15.17,1.983 15.113,1.983 C15.056,1.983 15.066,1.925 15.093,1.925 C15.114,1.925 15.116,1.92 15.116,1.893 C15.116,1.875 15.116,1.846 15.116,1.814 C15.116,1.779 15.011,1.631 15.011,1.631 L15.003,1.631 C15.003,1.631 14.898,1.777 14.898,1.814 C14.898,1.846 14.898,1.876 14.898,1.893 C14.898,1.919 14.906,1.925 14.921,1.925 C14.95,1.925 14.958,1.983 14.905,1.983 C14.848,1.983 14.823,2.032 14.823,2.057 C14.823,2.079 14.821,2.081 14.821,2.101 C14.821,2.136 14.612,2.372 14.405,2.537 C14.378,2.558 14.358,2.57 14.331,2.574 L14.27,2.574 C14.252,2.574 14.241,2.587 14.241,2.602 L14.241,2.72 C14.241,2.736 14.255,2.748 14.27,2.748 L14.319,2.748 C14.339,2.753 14.358,2.779 14.358,2.835 C14.358,2.891 14.342,2.915 14.325,2.924 L14.268,2.924 C14.252,2.924 14.241,2.937 14.241,2.953 L14.241,3.069 C14.241,3.085 14.255,3.099 14.268,3.099 L14.274,3.099 C14.28,3.1 14.284,3.1 14.288,3.1 C14.315,3.1 14.349,3.095 14.349,3.136 L14.349,4.353 C14.314,4.37 14.267,4.403 14.267,4.46 C14.267,4.537 14.267,4.52 14.267,4.56 C14.267,4.584 14.246,4.624 14.201,4.624 C14.162,4.624 14.082,4.624 14.015,4.624 C13.974,4.624 13.947,4.656 13.947,4.685 L13.947,4.882 C13.947,4.902 13.97,4.927 13.998,4.925 C14.092,4.922 14.156,4.949 14.156,5.019 C14.156,5.022 14.154,5.09 14.154,5.094 C14.154,5.157 14.09,5.187 14.019,5.21 C13.882,5.257 13.57,5.341 13.562,5.562 C13.044,5.801 12.109,6.316 11.435,7.33 C10.572,8.51 10.654,10.142 10.646,10.372 C10.644,10.42 10.609,10.45 10.572,10.45 C10.547,10.45 10.488,10.45 10.472,10.45 C10.429,10.45 10.429,10.487 10.429,10.487 L10.429,10.656 C10.429,10.656 10.431,10.698 10.386,10.698 C10.343,10.698 10.216,10.698 10.216,10.698 C10.216,10.698 10.173,10.698 10.173,10.745 C10.173,10.782 10.173,10.929 10.173,10.929 C10.173,10.929 10.175,10.965 10.126,10.965 C10.093,10.965 9.956,10.965 9.956,10.965 C9.956,10.965 9.909,10.965 9.909,11.014 C9.909,11.041 9.909,11.151 9.909,11.21 C9.909,11.232 9.923,11.236 9.938,11.238 C9.989,11.245 10.09,11.291 10.09,11.404 C10.09,11.596 10.207,11.615 10.254,11.615 L10.254,12.324 C10.254,12.49 10.125,12.554 10.053,12.572 C10.037,12.574 10.02,12.592 10.02,12.612 C10.02,12.631 10.02,13.341 10.02,13.341 L15.002,12.241 L15.01,12.241 L19.994,13.341 C19.994,13.341 19.994,12.629 19.994,12.612 C19.994,12.591 19.974,12.575 19.957,12.572 C19.885,12.554 19.758,12.489 19.758,12.324 L19.758,11.615 C19.807,11.615 19.922,11.596 19.922,11.404 C19.922,11.292 20.027,11.245 20.074,11.238 C20.092,11.236 20.105,11.232 20.105,11.21 C20.105,11.15 20.105,11.041 20.105,11.014 C20.107,10.966 20.058,10.966 20.058,10.966 z" fill="#FFFFFF"/>
    <path d="M25.573,26.898 L25.573,25.441 L24.721,25.441 L24.721,24.805 L5.281,24.805 L5.281,25.44 L4.427,25.44 L4.427,26.896 L3.57,26.896 L3.57,28.368 L26.43,28.368 L26.43,26.898 z" fill="#FFFFFF"/>
  </g>
</svg>
